<svg xmlns="http://www.w3.org/2000/svg" xmlns:xlink="http://www.w3.org/1999/xlink" style="enable-background:new 0 0 508.52 508.52" id="Capa_1" width="512" height="512" x="0" y="0" version="1.1" viewBox="0 0 508.52 508.52" xml:space="preserve"><g><g><g><g><path fill="red" d="M254.26,0C113.845,0,0,113.845,0,254.26s113.845,254.26,254.26,254.26 s254.26-113.845,254.26-254.26S394.675,0,254.26,0z M254.26,476.737c-122.68,0-222.477-99.829-222.477-222.477 c0-122.68,99.797-222.477,222.477-222.477c122.649,0,222.477,99.797,222.477,222.477 C476.737,376.908,376.908,476.737,254.26,476.737z"/><path fill="red" d="M254.26,95.347c-17.544,0-31.782,14.239-31.782,31.782v158.912 c0,17.544,14.239,31.782,31.782,31.782s31.782-14.239,31.782-31.782V127.13C286.042,109.586,271.804,95.347,254.26,95.347z"/><circle cx="254.26" cy="380.881" r="31.782" fill="red"/></g></g></g></g></svg>