<svg xmlns="http://www.w3.org/2000/svg" xmlns:xlink="http://www.w3.org/1999/xlink" id="Ebene_2_1_" x="0" y="0" version="1.1" viewBox="0 0 50 50" xml:space="preserve" style="enable-background:new 0 0 50 50"><g><path d="M10.1,961.7c-0.5,0-0.8,0.5-0.8,1c0,0.2,0.1,0.4,0.3,0.5l14.2,14.2L9.6,991.6c-0.3,0.3-0.3,0.9,0,1.2 c0.3,0.3,0.9,0.3,1.2,0l14.2-14.2l14.2,14.2c0.3,0.3,0.9,0.3,1.2,0c0.3-0.3,0.3-0.9,0-1.2l-14.2-14.2l14.2-14.2 c0.3-0.3,0.4-0.9,0-1.2c-0.2-0.2-0.4-0.3-0.7-0.3c-0.2,0-0.4,0.1-0.6,0.3l-14.2,14.2L10.9,962C10.7,961.8,10.4,961.7,10.1,961.7z" transform="translate(0,-952.36218)"/></g></svg>