<svg xmlns="http://www.w3.org/2000/svg" xmlns:svg="http://www.w3.org/2000/svg" style="enable-background:new 0 0 1077 881" id="Ebene_4" x="0" y="0" version="1.1" viewBox="0 0 1077 881" xml:space="preserve"><metadata id="metadata3794"/><style id="style3772" type="text/css">.st0,.st1,.st2{stroke:#000;stroke-miterlimit:10}.st0{fill:none;stroke-width:8}.st1{stroke-width:2}.st2{fill:none;stroke-width:5}</style><polygon style="fill:none;stroke:#000;stroke-width:8;stroke-miterlimit:10" id="outline" points="329 421 341 432 333 438 350 457 321 543 344 627 432 598 484 624 543 625 590 597 675 625 698 541 671 457 687 438 677 432 689 422 681 415 693 406 685 401 696 339 678 286 561 332 460 332 343 282 323 340 333 400 326 405 339 415" class="st0" transform="matrix(2.7550173,0,0,2.4528167,-865.01944,-671.78502)"/><polygon style="stroke:#000;stroke-width:2;stroke-miterlimit:10" id="polygon3775" points="329 421 339 415 326 405 333 400 323 340 343 282 483 389 427 437 350 457 333 438 341 432" class="st1" transform="matrix(2.7550173,0,0,2.4528167,-865.01944,-671.78502)"/><polygon style="stroke:#000;stroke-width:2;stroke-miterlimit:10" id="polygon3777" points="681 415 689 422 677 432 687 438 671 457 593 436 539 389 678 286 696 337 685 401 693 406" class="st1" transform="matrix(2.7550173,0,0,2.4528167,-865.01944,-671.78502)"/><polygon style="stroke:#000;stroke-width:2;stroke-miterlimit:10" id="polygon3779" points="468 487 483 512 439 501" class="st1" transform="matrix(2.7550173,0,0,2.4528167,-865.01944,-671.78502)"/><polygon style="stroke:#000;stroke-width:2;stroke-miterlimit:10" id="polygon3781" points="555 487 544 512 583 501" class="st1" transform="matrix(2.7550173,0,0,2.4528167,-865.01944,-671.78502)"/><polygon style="stroke:#000;stroke-width:2;stroke-miterlimit:10" id="polygon3783" points="487 591 483 595 486 561 494 556 535 556 543 561 547 594 544 591" class="st1" transform="matrix(2.7550173,0,0,2.4528167,-865.01944,-671.78502)"/><path style="fill:none;stroke:#000;stroke-width:12.99764538;stroke-miterlimit:10" id="path3785" d="M 1053.85,656.41524 748.04312,644.15115 643.35247,700.56593 c -13.77509,7.35845 -27.55018,14.71691 -27.55018,14.71691" class="st2"/><path style="fill:none;stroke:#000;stroke-width:12.99764538;stroke-miterlimit:10" id="path3787" d="m 480.80646,715.28284 c 0,0 -13.77509,-7.35846 -27.55017,-14.71691 L 348.56564,644.15115 42.758734,656.41524 17.96357,658.86805" class="st2"/></svg>